<?xml version="1.0" encoding="utf-8"?><svg fill="none" stroke="#000000" viewBox="0 0 800 800" xmlns="http://www.w3.org/2000/svg" xmlns:xlink="http://www.w3.org/1999/xlink"><style>:root>svg{display:none}:root>svg:target{display:block}</style><svg viewBox="0 0 48 48" id="cogs" xmlns="http://www.w3.org/2000/svg"><defs></defs><path class="aa" d="M12 19.77a11.13 11.13 0 0 0-2.26.94l.26 4.53L5.44 25a11.13 11.13 0 0 0-.94 2.26l3.37 3.05-3.37 3a10.68 10.68 0 0 0 .94 2.26l4.56-.18-.23 4.54a11.09 11.09 0 0 0 2.26.93l3.05-3.37 3 3.37a10.64 10.64 0 0 0 2.26-.93l-.23-4.54 4.54.23a10.64 10.64 0 0 0 .93-2.26l-3.37-3 3.37-3.05a11.09 11.09 0 0 0-.92-2.31l-4.54.23.23-4.53a10.68 10.68 0 0 0-2.26-.94l-3 3.37Z"/><circle class="aa" cx="15.05" cy="30.32" r="3.96"/><path class="aa" d="M29.91 7.14a11 11 0 0 0-2.27.93l.24 4.54-4.54-.23a10.64 10.64 0 0 0-.93 2.26l3.36 3-3.36 3.05a11.09 11.09 0 0 0 .93 2.31l4.54-.23-.24 4.53a11 11 0 0 0 2.27.94l3-3.37 3 3.37a11.13 11.13 0 0 0 2.26-.94L38 22.76l4.53.23a11.13 11.13 0 0 0 .94-2.26l-3.37-3.05 3.37-3a10.68 10.68 0 0 0-.94-2.26l-4.53.19.23-4.54A11 11 0 0 0 36 7.14l-3 3.37Z"/><circle class="aa" cx="32.95" cy="17.68" r="3.96"/></svg><svg viewBox="0 0 48 48" id="git" xmlns="http://www.w3.org/2000/svg"><defs></defs><path class="ba" d="M4.21 22.12a2.87 2.87 0 0 0 0 3.77L22.12 43.8a2.87 2.87 0 0 0 3.77 0l17.9-17.91a2.85 2.85 0 0 0 0-3.77L25.89 4.21a2.68 2.68 0 0 0-1.89-.7h0a2.66 2.66 0 0 0-1.88.71ZM26.33 17.85l3.82 3.82M17.4 8.92l4.27 4.27"/><circle class="ba" cx="24" cy="32.41" r="3.3"/><circle class="ba" cx="24" cy="15.52" r="3.3"/><circle class="ba" cx="32.48" cy="24" r="3.3"/><path class="ba" d="M24 29.11V18.82"/></svg><svg viewBox="0 0 48 48" data-name="Layer 2" id="github" xmlns="http://www.w3.org/2000/svg"><path d="M24 2.5a21.5 21.5 0 0 0-6.8 41.9c1.08.2 1.47-.46 1.47-1v-3.65c-6 1.3-7.24-2.88-7.24-2.88A5.7 5.7 0 0 0 9 33.68c-1.95-1.33.15-1.31.15-1.31a4.52 4.52 0 0 1 3.29 2.22c1.92 3.29 5 2.34 6.26 1.79a4.61 4.61 0 0 1 1.37-2.88c-4.78-.54-9.8-2.38-9.8-10.62a8.29 8.29 0 0 1 2.22-5.77 7.68 7.68 0 0 1 .21-5.69s1.8-.58 5.91 2.2a20.46 20.46 0 0 1 10.76 0c4.11-2.78 5.91-2.2 5.91-2.2a7.74 7.74 0 0 1 .21 5.69 8.28 8.28 0 0 1 2.21 5.77c0 8.26-5 10.07-9.81 10.61a5.12 5.12 0 0 1 1.46 4v5.9c0 .71.39 1.24 1.48 1A21.5 21.5 0 0 0 24 2.5" /></svg><svg viewBox="0 0 48 48" id="layout" xmlns="http://www.w3.org/2000/svg"><defs></defs><path class="da" d="M40.5 5.5h-33a2 2 0 0 0-2 2v33a2 2 0 0 0 2 2h33a2 2 0 0 0 2-2v-33a2 2 0 0 0-2-2ZM24 5.5v37M42.5 24H24"/></svg><svg viewBox="0 0 48 48" id="mail" data-name="Layer 2" xmlns="http://www.w3.org/2000/svg"><defs></defs><path class="ecls-1" d="M41.94 10.66H6.06a1.56 1.56 0 0 0-1.56 1.56v23.56a1.56 1.56 0 0 0 1.56 1.56h35.88a1.56 1.56 0 0 0 1.56-1.56V12.22a1.56 1.56 0 0 0-1.56-1.56Z"/><path class="ecls-1" d="M8.48 14.22 20.2 25.94a5.31 5.31 0 0 0 7.52 0l11.77-11.77M39.26 33.83l-10.63-8.71M8.76 33.83l10.63-8.71"/></svg><svg viewBox="0 0 48 48" id="moon" xmlns="http://www.w3.org/2000/svg"><path d="M23.745 2.501a18.517 18.517 0 0 1 7.89 10.791c2.647 9.879-3.216 20.033-13.094 22.68a18.518 18.518 0 0 1-13.31-1.497A21.504 21.504 0 0 0 29.556 44.77c11.472-3.074 18.28-14.865 15.206-26.337A21.504 21.504 0 0 0 23.745 2.502Z" /></svg><svg viewBox="0 0 48 48" id="palette" xmlns="http://www.w3.org/2000/svg"><defs></defs><path class="ga" d="M31.253 11.902a16.384 16.384 0 0 0-6.966-2.57 16.659 16.659 0 1 0-4.004 33.075 16.857 16.857 0 0 0 5.295-.25 3.803 3.803 0 0 0 1.893-6.41l-1.17-1.17a2.583 2.583 0 0 1 .332-3.932 2.678 2.678 0 0 1 3.417.38l1.602 1.601a3.81 3.81 0 0 0 6.31-1.527 16.702 16.702 0 0 0 .675-7.669 16.376 16.376 0 0 0-2.684-6.907"/><circle class="ga" cx="17.312" cy="17.305" r="2.804"/><circle class="ga" cx="15.253" cy="32.905" r="2.804"/><circle class="ga" cx="12.698" cy="24.635" r="2.804"/><path class="ga" d="M28.774 23.416a4.214 4.214 0 0 0-8.017-1.822l-.01-.012s-1.776 3.318-3.666 3.584c.719 1.544 4.056 3.853 8.416 2.365l-.005-.006a4.219 4.219 0 0 0 3.282-4.11Z"/><path class="ga" d="M25.512 19.304c.885-3.507 13.607-16.15 16.561-13.434s-10.29 15.559-13.475 16.336"/></svg><svg viewBox="0 0 48 48" id="phone" xmlns="http://www.w3.org/2000/svg"><path d="M19.308 12.467a24.095 24.095 0 0 1-.881-4.384C18.27 6.602 16.977 5.5 15.488 5.5H8.58c-1.777 0-3.145 1.535-2.989 3.304 1.575 17.829 15.777 32.03 33.606 33.606 1.77.156 3.304-1.207 3.304-2.984v-6.16c0-2.248-1.102-3.536-2.583-3.693a24.095 24.095 0 0 1-4.384-.88 4.903 4.903 0 0 0-4.87 1.243l-2.957 2.957a31.27 31.27 0 0 1-12.599-12.599l2.957-2.957a4.903 4.903 0 0 0 1.244-4.87Z" /></svg><svg viewBox="0 0 48 48" id="sun" xmlns="http://www.w3.org/2000/svg"><defs></defs><path class="ia" d="M24 11.045a12.954 12.954 0 0 0-9.16 22.114A12.954 12.954 0 1 0 33.16 14.84 13.11 13.11 0 0 0 24 11.045Z"/><path class="ia" d="M19.648 7.45 24.03 2.5l4.35 5.007 6.848-2.632v7.029l6.87.732-1.634 6.998 5.037 4.33-5.002 4.19 1.581 7.024-6.852.884v6.88l-6.884-2.567-4.304 5.125-4.446-5.128-6.763 2.579v-6.883l-6.934-.902L7.56 28.16 2.5 23.957l5.088-4.29-1.616-7.006 6.847-.822V4.946l6.83 2.503"/></svg><svg viewBox="0 0 48 48" data-name="Layer 2" id="telegram" xmlns="http://www.w3.org/2000/svg"><path d="M40.83 8.48c1.14 0 2 1 1.54 2.86l-5.58 26.3c-.39 1.87-1.52 2.32-3.08 1.45L20.4 29.26a.4.4 0 0 1 0-.65l15.37-13.88c.7-.62-.15-.92-1.07-.36L15.41 26.54a.46.46 0 0 1-.4.05L6.82 24C5 23.47 5 22.22 7.23 21.33L40 8.69a2.16 2.16 0 0 1 .83-.21Z" /></svg><svg viewBox="0 0 48 48" data-name="Layer 2" id="viber" xmlns="http://www.w3.org/2000/svg"><path d="M9 4.5a1.88 1.88 0 0 0-1.92 1.88v30.07A1.88 1.88 0 0 0 9 38.33h1.88v5.17l10.34-5.17H39a1.88 1.88 0 0 0 1.88-1.88V6.38A1.88 1.88 0 0 0 39 4.5Zm4.7 6.58h5.6a1 1 0 0 1 .94.94 10.06 10.06 0 0 0 .63 3.76 1.85 1.85 0 0 1-.63 2.35l-2 2a17.94 17.94 0 0 0 3.38 4.6 18.94 18.94 0 0 0 4.61 3.39l2-2a1.85 1.85 0 0 1 2.35-.63 10.06 10.06 0 0 0 3.76.63 1 1 0 0 1 .94.94v5.64a1 1 0 0 1-.94.94A22.53 22.53 0 0 1 12.72 12a1 1 0 0 1 .94-.92Z" /></svg><svg viewBox="0 0 48 48" id="web" xmlns="http://www.w3.org/2000/svg"><defs></defs><circle class="la" cx="24" cy="24" r="21.5"/><path class="la" d="M36 41.84A33.32 33.32 0 0 1 13 5.55"/><path class="la" d="M2.5 23.65a33.21 33.21 0 0 1 43 0"/><path class="la" d="M35.1 5.79a34.7 34.7 0 0 1 .27 3.84A33.21 33.21 0 0 1 12 41.82"/></svg><svg viewBox="0 0 48 48" data-name="Layer 2" id="whatsapp" xmlns="http://www.w3.org/2000/svg"><path d="M24 2.5A21.52 21.52 0 0 0 5.15 34.36L2.5 45.5l11.14-2.65A21.5 21.5 0 1 0 24 2.5Zm-10.75 9.77h5.86a1 1 0 0 1 1 1 10.4 10.4 0 0 0 .66 3.91 1.93 1.93 0 0 1-.66 2.44l-2.05 2a18.6 18.6 0 0 0 3.52 4.79A18.6 18.6 0 0 0 26.35 30l2-2.05c1-1 1.46-1 2.44-.66a10.4 10.4 0 0 0 3.91.66 1.05 1.05 0 0 1 1 1v5.86a1.05 1.05 0 0 1-1 1 23.68 23.68 0 0 1-15.64-6.84 23.6 23.6 0 0 1-6.84-15.64 1.07 1.07 0 0 1 1.03-1.06Z" /></svg></svg>